<svg width="444" height="369" viewBox="0 0 444 369" fill="none" xmlns="http://www.w3.org/2000/svg">
<g clip-path="url(#clip0_5_22)">
<path d="M443.358 366.17H0.641618C0.471451 366.17 0.308252 366.092 0.187925 365.954C0.0675984 365.815 0 365.628 0 365.432C0 365.236 0.0675984 365.048 0.187925 364.91C0.308252 364.772 0.471451 364.694 0.641618 364.694H443.358C443.529 364.694 443.692 364.772 443.812 364.91C443.932 365.048 444 365.236 444 365.432C444 365.628 443.932 365.815 443.812 365.954C443.692 366.092 443.529 366.17 443.358 366.17Z" fill="#CCCCCC"/>
<path d="M399.539 237.43H139.041C137.935 237.43 136.875 237.935 136.092 238.835C135.31 239.735 134.871 240.955 134.871 242.228C134.871 243.501 135.31 244.721 136.092 245.621C136.875 246.521 137.935 247.026 139.041 247.026H146.42V361.814C146.42 363.086 146.859 364.307 147.642 365.206C148.424 366.106 149.485 366.612 150.591 366.612C151.697 366.612 152.758 366.106 153.54 365.206C154.322 364.307 154.761 363.086 154.761 361.814L154.825 247.026H383.177V361.814C383.177 363.086 383.617 364.307 384.399 365.206C385.181 366.106 386.242 366.612 387.348 366.612C388.454 366.612 389.515 366.106 390.297 365.206C391.079 364.307 391.518 363.086 391.518 361.814V249.556L392.732 247.026H399.539C400.645 247.026 401.705 246.521 402.488 245.621C403.27 244.721 403.709 243.501 403.709 242.228C403.709 240.955 403.27 239.735 402.488 238.835C401.705 237.935 400.645 237.43 399.539 237.43Z" fill="#CCCCCC"/>
<path d="M283.463 239.941H204.556C203.028 239.939 201.563 239.24 200.483 237.997C199.402 236.754 198.795 235.069 198.793 233.311V183.329C198.795 181.571 199.402 179.886 200.483 178.643C201.563 177.4 203.028 176.701 204.556 176.699H283.463C284.991 176.701 286.456 177.4 287.536 178.643C288.617 179.886 289.224 181.571 289.226 183.329V233.311C289.224 235.069 288.617 236.754 287.536 237.997C286.456 239.24 284.991 239.939 283.463 239.941Z" fill="#3F3D56"/>
<path d="M283.463 181.802H204.556C204.204 181.803 203.867 181.964 203.618 182.25C203.369 182.537 203.229 182.925 203.228 183.33V233.312C203.229 233.717 203.369 234.105 203.618 234.392C203.867 234.678 204.204 234.839 204.556 234.84H283.463C283.815 234.839 284.152 234.678 284.401 234.392C284.65 234.105 284.79 233.717 284.791 233.312V183.33C284.79 182.925 284.65 182.537 284.401 182.25C284.152 181.964 283.815 181.803 283.463 181.802Z" fill="white"/>
<path d="M250.739 217.189C250.739 217.189 241.293 214.685 236.098 219.276C230.903 223.867 242.71 234.301 242.71 234.301L250.739 217.189Z" fill="#2F2E41"/>
<path d="M244.472 212.457C249.393 212.457 253.382 207.868 253.382 202.206C253.382 196.544 249.393 191.955 244.472 191.955C239.551 191.955 235.562 196.544 235.562 202.206C235.562 207.868 239.551 212.457 244.472 212.457Z" fill="#A0616A"/>
<path d="M237.582 187.816C238.176 186.655 239.038 185.707 240.071 185.074C241.104 184.442 242.27 184.15 243.438 184.231C244.66 184.408 245.853 184.792 246.977 185.371L252.801 187.985C254.309 188.661 255.959 189.49 256.614 191.193C257.221 192.773 256.768 194.598 256.309 196.243L254.13 204.062C253.889 202.293 253.474 200.56 252.895 198.897C252.306 197.223 251.242 195.827 249.877 194.937C248.364 194.044 246.58 194.063 244.882 194.157C242.476 194.29 239.861 194.642 238.152 196.594C237.244 197.703 236.629 199.085 236.378 200.58C236.13 202.067 236.006 203.577 236.006 205.091C235.019 203.141 234.188 201.091 233.523 198.968C232.976 197.387 232.664 195.711 232.601 194.011C232.544 192.296 233.038 190.618 233.99 189.296C234.473 188.651 235.103 188.173 235.809 187.917C236.515 187.661 237.27 187.638 237.987 187.849L237.582 187.816Z" fill="#2F2E41"/>
<path d="M265.747 226.078C265.664 225.732 265.493 225.422 265.257 225.186C265.021 224.951 264.729 224.802 264.419 224.757C264.399 224.74 264.377 224.725 264.355 224.712L251.053 216.136C250.674 215.891 250.226 215.824 249.805 215.949C249.383 216.074 249.02 216.381 248.79 216.806L245.152 223.583L239.672 217.279L239.585 217.179C239.304 216.855 238.933 216.656 238.536 216.616C238.14 216.576 237.745 216.698 237.419 216.961L226.487 225.768C226.468 225.768 226.448 225.775 226.429 225.775C225.906 225.876 225.428 226.178 225.075 226.633C224.721 227.088 224.513 227.668 224.485 228.278L224.203 234.84H267.858L265.747 226.078Z" fill="#6610F2"/>
<path d="M290.113 233.821H281.69C281.69 233.55 281.597 233.291 281.43 233.099C281.264 232.908 281.039 232.801 280.803 232.801H278.144C277.908 232.801 277.683 232.908 277.517 233.099C277.35 233.291 277.257 233.55 277.257 233.821H274.597C274.597 233.55 274.504 233.291 274.338 233.099C274.171 232.908 273.946 232.801 273.711 232.801H271.051C270.816 232.801 270.59 232.908 270.424 233.099C270.258 233.291 270.164 233.55 270.164 233.821H267.504C267.504 233.55 267.411 233.291 267.245 233.099C267.078 232.908 266.853 232.801 266.618 232.801H263.958C263.723 232.801 263.497 232.908 263.331 233.099C263.165 233.291 263.071 233.55 263.071 233.821H260.412C260.412 233.55 260.318 233.291 260.152 233.099C259.986 232.908 259.76 232.801 259.525 232.801H256.865C256.63 232.801 256.405 232.908 256.238 233.099C256.072 233.291 255.979 233.55 255.979 233.821H253.319C253.319 233.55 253.225 233.291 253.059 233.099C252.893 232.908 252.667 232.801 252.432 232.801H249.772C249.537 232.801 249.312 232.908 249.146 233.099C248.979 233.291 248.886 233.55 248.886 233.821H246.226C246.226 233.55 246.133 233.291 245.966 233.099C245.8 232.908 245.575 232.801 245.339 232.801H242.68C242.444 232.801 242.219 232.908 242.053 233.099C241.886 233.291 241.793 233.55 241.793 233.821H239.133C239.133 233.55 239.04 233.291 238.874 233.099C238.707 232.908 238.482 232.801 238.247 232.801H235.587C235.352 232.801 235.126 232.908 234.96 233.099C234.794 233.291 234.7 233.55 234.7 233.821H232.04C232.04 233.55 231.947 233.291 231.781 233.099C231.614 232.908 231.389 232.801 231.154 232.801H228.494C228.259 232.801 228.033 232.908 227.867 233.099C227.701 233.291 227.607 233.55 227.607 233.821H224.948C224.948 233.55 224.854 233.291 224.688 233.099C224.522 232.908 224.296 232.801 224.061 232.801H221.401C221.166 232.801 220.941 232.908 220.774 233.099C220.608 233.291 220.515 233.55 220.515 233.821H217.855C217.855 233.55 217.761 233.291 217.595 233.099C217.429 232.908 217.203 232.801 216.968 232.801H214.308C214.073 232.801 213.848 232.908 213.681 233.099C213.515 233.291 213.422 233.55 213.422 233.821H210.762C210.762 233.55 210.669 233.291 210.502 233.099C210.336 232.908 210.111 232.801 209.875 232.801H207.216C206.98 232.801 206.755 232.908 206.589 233.099C206.422 233.291 206.329 233.55 206.329 233.821H197.906C197.202 233.822 196.526 234.145 196.028 234.719C195.53 235.292 195.251 236.07 195.251 236.881C195.251 237.692 195.53 238.469 196.028 239.043C196.526 239.617 197.202 239.94 197.906 239.941H290.113C290.818 239.941 291.495 239.619 291.993 239.045C292.492 238.471 292.773 237.692 292.773 236.881C292.773 236.069 292.492 235.291 291.993 234.717C291.495 234.143 290.818 233.821 290.113 233.821Z" fill="#3F3D56"/>
<path d="M184.195 216.05V236.369H139.948C138.762 236.416 137.581 236.189 136.473 235.699C135.366 235.21 134.355 234.47 133.502 233.521C132.649 232.573 131.97 231.437 131.507 230.181C131.044 228.925 130.805 227.574 130.805 226.209C130.805 224.845 131.044 223.494 131.507 222.238C131.97 220.981 132.649 219.845 133.502 218.897C134.355 217.949 135.366 217.208 136.473 216.719C137.581 216.23 138.762 216.002 139.948 216.05H184.195Z" fill="#F2F2F2"/>
<path d="M185.282 236.213C185.282 236.42 185.211 236.619 185.083 236.765C184.956 236.912 184.783 236.994 184.603 236.994H139.16C136.692 236.994 134.325 235.866 132.579 233.858C130.834 231.85 129.854 229.127 129.854 226.288C129.854 223.448 130.834 220.725 132.579 218.717C134.325 216.709 136.692 215.581 139.16 215.581H184.603C184.783 215.581 184.956 215.663 185.083 215.81C185.211 215.956 185.282 216.155 185.282 216.362C185.282 216.57 185.211 216.769 185.083 216.915C184.956 217.062 184.783 217.144 184.603 217.144H139.16C137.053 217.146 135.034 218.11 133.545 219.825C132.056 221.539 131.219 223.864 131.219 226.288C131.219 228.711 132.056 231.036 133.545 232.75C135.034 234.465 137.053 235.429 139.16 235.431H184.603C184.783 235.431 184.956 235.513 185.083 235.66C185.21 235.807 185.282 236.005 185.282 236.213Z" fill="#6610F2"/>
<path d="M184.195 220.739H136.646C136.628 220.739 136.611 220.735 136.594 220.727C136.577 220.719 136.562 220.708 136.55 220.693C136.537 220.679 136.527 220.662 136.52 220.643C136.513 220.624 136.51 220.603 136.51 220.583C136.51 220.562 136.513 220.541 136.52 220.522C136.527 220.503 136.537 220.486 136.55 220.472C136.562 220.457 136.577 220.446 136.594 220.438C136.611 220.43 136.628 220.426 136.646 220.426H184.195C184.231 220.427 184.265 220.443 184.291 220.472C184.316 220.502 184.33 220.541 184.33 220.583C184.33 220.624 184.316 220.663 184.291 220.693C184.265 220.722 184.231 220.739 184.195 220.739Z" fill="#CCCCCC"/>
<path d="M184.195 224.49H136.646C136.628 224.49 136.611 224.486 136.594 224.478C136.577 224.471 136.562 224.459 136.55 224.445C136.537 224.43 136.527 224.413 136.52 224.394C136.513 224.375 136.51 224.354 136.51 224.334C136.51 224.313 136.513 224.293 136.52 224.274C136.527 224.255 136.537 224.237 136.55 224.223C136.562 224.208 136.577 224.197 136.594 224.189C136.611 224.181 136.628 224.177 136.646 224.177H184.195C184.231 224.178 184.265 224.194 184.291 224.224C184.316 224.253 184.33 224.292 184.33 224.334C184.33 224.375 184.316 224.415 184.291 224.444C184.265 224.473 184.231 224.49 184.195 224.49Z" fill="#CCCCCC"/>
<path d="M184.195 228.241H136.646C136.628 228.241 136.611 228.237 136.594 228.23C136.577 228.222 136.562 228.21 136.55 228.196C136.537 228.181 136.527 228.164 136.52 228.145C136.513 228.126 136.51 228.106 136.51 228.085C136.51 228.064 136.513 228.044 136.52 228.025C136.527 228.006 136.537 227.989 136.55 227.974C136.562 227.96 136.577 227.948 136.594 227.94C136.611 227.932 136.628 227.929 136.646 227.929H184.195C184.231 227.929 184.265 227.946 184.291 227.975C184.316 228.004 184.33 228.044 184.33 228.085C184.33 228.126 184.316 228.166 184.291 228.195C184.265 228.224 184.231 228.241 184.195 228.241Z" fill="#CCCCCC"/>
<path d="M184.195 231.992H136.646C136.628 231.993 136.611 231.989 136.594 231.981C136.577 231.973 136.562 231.962 136.55 231.947C136.537 231.933 136.527 231.915 136.52 231.896C136.513 231.877 136.51 231.857 136.51 231.836C136.51 231.815 136.513 231.795 136.52 231.776C136.527 231.757 136.537 231.74 136.55 231.725C136.562 231.711 136.577 231.699 136.594 231.691C136.611 231.684 136.628 231.68 136.646 231.68H184.195C184.231 231.68 184.265 231.697 184.291 231.726C184.316 231.755 184.33 231.795 184.33 231.836C184.33 231.877 184.316 231.917 184.291 231.946C184.265 231.976 184.231 231.992 184.195 231.992Z" fill="#CCCCCC"/>
<path d="M175.854 194.643V214.962H131.607C130.421 215.009 129.24 214.781 128.132 214.292C127.025 213.803 126.014 213.062 125.161 212.114C124.308 211.166 123.629 210.03 123.166 208.774C122.702 207.518 122.464 206.167 122.464 204.802C122.464 203.437 122.702 202.087 123.166 200.83C123.629 199.574 124.308 198.438 125.161 197.49C126.014 196.542 127.025 195.801 128.132 195.312C129.24 194.823 130.421 194.595 131.607 194.643H175.854Z" fill="#F2F2F2"/>
<path d="M176.941 214.805C176.941 215.013 176.869 215.211 176.742 215.358C176.615 215.504 176.442 215.587 176.262 215.587H130.819C129.597 215.587 128.386 215.31 127.257 214.772C126.128 214.234 125.103 213.445 124.238 212.451C123.374 211.457 122.689 210.276 122.221 208.977C121.753 207.678 121.513 206.286 121.513 204.88C121.513 203.474 121.753 202.082 122.221 200.783C122.689 199.484 123.374 198.304 124.238 197.31C125.103 196.315 126.128 195.527 127.257 194.989C128.386 194.451 129.597 194.174 130.819 194.174H176.262C176.442 194.174 176.615 194.256 176.742 194.403C176.87 194.549 176.941 194.748 176.941 194.955C176.941 195.162 176.87 195.361 176.742 195.508C176.615 195.654 176.442 195.737 176.262 195.737H130.819C128.712 195.739 126.693 196.703 125.204 198.418C123.715 200.132 122.878 202.457 122.878 204.88C122.878 207.304 123.715 209.628 125.204 211.343C126.693 213.057 128.712 214.022 130.819 214.024H176.262C176.442 214.024 176.615 214.106 176.742 214.253C176.869 214.399 176.941 214.598 176.941 214.805Z" fill="#3F3D56"/>
<path d="M175.854 199.332H128.305C128.287 199.332 128.27 199.328 128.253 199.32C128.236 199.312 128.221 199.301 128.209 199.286C128.196 199.272 128.186 199.254 128.179 199.235C128.172 199.216 128.168 199.196 128.168 199.175C128.168 199.155 128.172 199.134 128.179 199.115C128.186 199.096 128.196 199.079 128.209 199.064C128.221 199.05 128.236 199.038 128.253 199.031C128.27 199.023 128.287 199.019 128.305 199.019H175.854C175.89 199.019 175.924 199.036 175.95 199.065C175.975 199.094 175.989 199.134 175.989 199.175C175.989 199.217 175.975 199.256 175.95 199.285C175.924 199.315 175.89 199.331 175.854 199.332Z" fill="#CCCCCC"/>
<path d="M175.854 203.083H128.305C128.287 203.083 128.27 203.079 128.253 203.071C128.236 203.063 128.221 203.052 128.209 203.037C128.196 203.023 128.186 203.006 128.179 202.987C128.172 202.968 128.168 202.947 128.168 202.926C128.168 202.906 128.172 202.885 128.179 202.866C128.186 202.847 128.196 202.83 128.209 202.816C128.221 202.801 128.236 202.79 128.253 202.782C128.27 202.774 128.287 202.77 128.305 202.77H175.854C175.89 202.77 175.924 202.787 175.95 202.816C175.975 202.846 175.989 202.885 175.989 202.926C175.989 202.968 175.975 203.007 175.95 203.037C175.924 203.066 175.89 203.082 175.854 203.083Z" fill="#CCCCCC"/>
<path d="M175.854 206.834H128.305C128.287 206.834 128.27 206.83 128.253 206.822C128.236 206.815 128.221 206.803 128.209 206.789C128.196 206.774 128.186 206.757 128.179 206.738C128.172 206.719 128.168 206.698 128.168 206.678C128.168 206.657 128.172 206.637 128.179 206.618C128.186 206.599 128.196 206.581 128.209 206.567C128.221 206.552 128.236 206.541 128.253 206.533C128.27 206.525 128.287 206.521 128.305 206.521H175.854C175.89 206.522 175.924 206.538 175.95 206.568C175.975 206.597 175.989 206.636 175.989 206.678C175.989 206.719 175.975 206.759 175.95 206.788C175.924 206.817 175.89 206.834 175.854 206.834Z" fill="#CCCCCC"/>
<path d="M175.854 210.585H128.305C128.287 210.585 128.27 210.581 128.253 210.574C128.236 210.566 128.221 210.554 128.209 210.54C128.196 210.525 128.186 210.508 128.179 210.489C128.172 210.47 128.168 210.449 128.168 210.429C128.168 210.408 128.172 210.388 128.179 210.369C128.186 210.35 128.196 210.332 128.209 210.318C128.221 210.303 128.236 210.292 128.253 210.284C128.27 210.276 128.287 210.272 128.305 210.273H175.854C175.89 210.273 175.924 210.289 175.95 210.319C175.975 210.348 175.989 210.388 175.989 210.429C175.989 210.47 175.975 210.51 175.95 210.539C175.924 210.568 175.89 210.585 175.854 210.585Z" fill="#CCCCCC"/>
<path d="M227.327 308.592V290.876C227.327 290.092 227.057 289.341 226.576 288.788C226.094 288.234 225.442 287.923 224.761 287.923H166.374C165.693 287.923 165.04 288.234 164.559 288.788C164.078 289.341 163.807 290.092 163.807 290.876V308.592H227.327Z" fill="#CCCCCC"/>
<path d="M227.327 315.236H163.807V338.119H227.327V315.236Z" fill="#CCCCCC"/>
<path d="M163.807 344.763V362.479C163.807 363.262 164.078 364.013 164.559 364.567C165.04 365.121 165.693 365.432 166.374 365.432H224.761C225.442 365.432 226.094 365.121 226.576 364.567C227.057 364.013 227.327 363.262 227.327 362.479V344.763H163.807Z" fill="#CCCCCC"/>
<path d="M195.247 301.21C196.31 301.21 197.171 300.219 197.171 298.996C197.171 297.772 196.31 296.781 195.247 296.781C194.183 296.781 193.322 297.772 193.322 298.996C193.322 300.219 194.183 301.21 195.247 301.21Z" fill="white"/>
<path d="M195.247 330.737C196.31 330.737 197.171 329.746 197.171 328.523C197.171 327.3 196.31 326.308 195.247 326.308C194.183 326.308 193.322 327.3 193.322 328.523C193.322 329.746 194.183 330.737 195.247 330.737Z" fill="white"/>
<path d="M195.35 359.639C196.413 359.639 197.275 358.648 197.275 357.425C197.275 356.202 196.413 355.21 195.35 355.21C194.287 355.21 193.425 356.202 193.425 357.425C193.425 358.648 194.287 359.639 195.35 359.639Z" fill="white"/>
<path d="M220.126 267.723V288.042H175.878C174.693 288.089 173.511 287.861 172.404 287.372C171.296 286.883 170.286 286.142 169.433 285.194C168.58 284.246 167.901 283.11 167.438 281.854C166.974 280.598 166.735 279.247 166.735 277.882C166.735 276.517 166.974 275.167 167.438 273.91C167.901 272.654 168.58 271.518 169.433 270.57C170.286 269.622 171.296 268.881 172.404 268.392C173.511 267.903 174.693 267.675 175.878 267.723H220.126Z" fill="#F2F2F2"/>
<path d="M221.213 287.885C221.213 288.093 221.141 288.291 221.014 288.438C220.886 288.584 220.714 288.667 220.533 288.667H175.09C173.868 288.668 172.657 288.392 171.527 287.854C170.397 287.317 169.37 286.528 168.505 285.534C167.64 284.54 166.954 283.359 166.486 282.06C166.018 280.76 165.777 279.367 165.777 277.96C165.777 276.553 166.018 275.161 166.486 273.861C166.954 272.561 167.64 271.381 168.505 270.386C169.37 269.392 170.397 268.604 171.527 268.066C172.657 267.529 173.868 267.253 175.09 267.254H220.533C220.714 267.254 220.886 267.336 221.014 267.483C221.141 267.629 221.213 267.828 221.213 268.035C221.213 268.242 221.141 268.441 221.014 268.588C220.886 268.734 220.714 268.817 220.533 268.817H175.09C172.984 268.819 170.964 269.783 169.475 271.498C167.986 273.212 167.15 275.537 167.15 277.96C167.15 280.384 167.986 282.708 169.475 284.423C170.964 286.137 172.984 287.102 175.09 287.104H220.533C220.714 287.104 220.886 287.186 221.014 287.333C221.141 287.479 221.213 287.678 221.213 287.885Z" fill="#3F3D56"/>
<path d="M220.126 272.412H172.577C172.559 272.412 172.541 272.408 172.525 272.4C172.508 272.392 172.493 272.381 172.48 272.366C172.468 272.352 172.457 272.334 172.451 272.315C172.444 272.296 172.44 272.276 172.44 272.255C172.44 272.235 172.444 272.214 172.451 272.195C172.457 272.176 172.468 272.159 172.48 272.144C172.493 272.13 172.508 272.118 172.525 272.111C172.541 272.103 172.559 272.099 172.577 272.099H220.126C220.162 272.099 220.196 272.116 220.221 272.145C220.247 272.174 220.261 272.214 220.261 272.255C220.261 272.297 220.247 272.336 220.221 272.365C220.196 272.395 220.162 272.411 220.126 272.412Z" fill="#CCCCCC"/>
<path d="M220.126 276.163H172.577C172.559 276.163 172.541 276.159 172.525 276.151C172.508 276.143 172.493 276.132 172.48 276.117C172.468 276.103 172.457 276.086 172.451 276.067C172.444 276.048 172.44 276.027 172.44 276.007C172.44 275.986 172.444 275.965 172.451 275.946C172.457 275.927 172.468 275.91 172.48 275.896C172.493 275.881 172.508 275.87 172.525 275.862C172.541 275.854 172.559 275.85 172.577 275.85H220.126C220.162 275.851 220.196 275.867 220.221 275.896C220.247 275.926 220.261 275.965 220.261 276.007C220.261 276.048 220.247 276.087 220.221 276.117C220.196 276.146 220.162 276.163 220.126 276.163Z" fill="#CCCCCC"/>
<path d="M220.126 279.914H172.577C172.559 279.914 172.541 279.91 172.525 279.902C172.508 279.895 172.493 279.883 172.48 279.869C172.468 279.854 172.457 279.837 172.451 279.818C172.444 279.799 172.44 279.778 172.44 279.758C172.44 279.737 172.444 279.717 172.451 279.698C172.457 279.679 172.468 279.661 172.48 279.647C172.493 279.632 172.508 279.621 172.525 279.613C172.541 279.605 172.559 279.601 172.577 279.601H220.126C220.162 279.602 220.196 279.618 220.221 279.648C220.247 279.677 220.261 279.716 220.261 279.758C220.261 279.799 220.247 279.839 220.221 279.868C220.196 279.897 220.162 279.914 220.126 279.914Z" fill="#CCCCCC"/>
<path d="M220.126 283.665H172.577C172.559 283.665 172.541 283.661 172.525 283.654C172.508 283.646 172.493 283.634 172.48 283.62C172.468 283.605 172.457 283.588 172.451 283.569C172.444 283.55 172.44 283.529 172.44 283.509C172.44 283.488 172.444 283.468 172.451 283.449C172.457 283.43 172.468 283.412 172.48 283.398C172.493 283.383 172.508 283.372 172.525 283.364C172.541 283.356 172.559 283.352 172.577 283.353H220.126C220.162 283.353 220.196 283.369 220.221 283.399C220.247 283.428 220.261 283.468 220.261 283.509C220.261 283.55 220.247 283.59 220.221 283.619C220.196 283.648 220.162 283.665 220.126 283.665Z" fill="#CCCCCC"/>
<path d="M160.475 135.103V5.55219C160.477 4.08017 160.986 2.66892 161.891 1.62805C162.795 0.587176 164.022 0.00167103 165.301 -3.33786e-06H254.312C255.592 0.00168078 256.818 0.587189 257.723 1.62806C258.628 2.66893 259.137 4.08017 259.138 5.55219V135.103C259.137 136.575 258.628 137.986 257.723 139.027C256.818 140.068 255.592 140.654 254.312 140.655H165.301C164.022 140.654 162.795 140.068 161.891 139.027C160.986 137.986 160.477 136.575 160.475 135.103ZM165.301 1.23382C164.306 1.2351 163.352 1.69048 162.648 2.50006C161.945 3.30963 161.549 4.40728 161.548 5.55219V135.103C161.549 136.248 161.945 137.346 162.648 138.155C163.352 138.965 164.306 139.42 165.301 139.421H254.312C255.307 139.42 256.261 138.965 256.965 138.155C257.669 137.346 258.065 136.248 258.066 135.103V5.55219C258.065 4.40728 257.669 3.30963 256.965 2.50006C256.261 1.69048 255.307 1.2351 254.312 1.23382H165.301Z" fill="#E6E6E6"/>
<path d="M214.798 59.4958V32.8949C214.799 32.1589 215.053 31.4532 215.506 30.9328C215.958 30.4124 216.571 30.1196 217.211 30.1188H236.804C237.444 30.1196 238.057 30.4124 238.51 30.9328C238.962 31.4532 239.216 32.1589 239.217 32.8949V59.4958C239.216 60.2318 238.962 60.9374 238.51 61.4579C238.057 61.9783 237.444 62.2711 236.804 62.2719H217.211C216.571 62.2711 215.958 61.9783 215.506 61.4579C215.053 60.9374 214.799 60.2318 214.798 59.4958Z" fill="#6610F2"/>
<path d="M176.727 71.834V45.2331C176.728 44.4971 176.982 43.7914 177.435 43.271C177.887 42.7506 178.501 42.4578 179.14 42.457H198.733C199.373 42.4578 199.986 42.7506 200.439 43.271C200.891 43.7914 201.146 44.4971 201.146 45.2331V71.834C201.146 72.57 200.891 73.2757 200.439 73.7961C199.986 74.3165 199.373 74.6093 198.733 74.6101H179.14C178.501 74.6093 177.887 74.3165 177.435 73.7961C176.982 73.2756 176.728 72.57 176.727 71.834Z" fill="#CCCCCC"/>
<path d="M207.291 109.465V82.8645C207.292 82.1285 207.546 81.4229 207.999 80.9024C208.451 80.382 209.064 80.0893 209.704 80.0884H229.297C229.937 80.0893 230.55 80.382 231.003 80.9024C231.455 81.4229 231.71 82.1285 231.71 82.8645V109.465C231.71 110.201 231.455 110.907 231.003 111.428C230.55 111.948 229.937 112.241 229.297 112.242H209.704C209.064 112.241 208.451 111.948 207.999 111.428C207.546 110.907 207.292 110.201 207.291 109.465Z" fill="#FF6584"/>
<path d="M324.378 231.083H304.219C304.028 231.083 303.839 231.133 303.667 231.23L298.579 234.161C298.412 234.243 298.269 234.38 298.168 234.554C298.068 234.729 298.015 234.933 298.015 235.143C298.015 235.352 298.068 235.557 298.168 235.731C298.269 235.906 298.412 236.043 298.579 236.125L303.667 239.055C303.839 239.152 304.028 239.203 304.219 239.203H324.378C324.656 239.221 324.929 239.113 325.138 238.902C325.347 238.69 325.475 238.393 325.495 238.073V232.212C325.475 231.893 325.347 231.595 325.138 231.384C324.929 231.172 324.656 231.064 324.378 231.083Z" fill="#3F3D56"/>
<path d="M325.495 232.212V238.073C325.476 238.393 325.347 238.69 325.138 238.902C324.929 239.113 324.656 239.221 324.379 239.203H320.362V231.083H324.379C324.656 231.064 324.929 231.172 325.138 231.384C325.347 231.595 325.476 231.893 325.495 232.212Z" fill="#6610F2"/>
<path d="M324.227 187.235C325.14 186.781 326.126 186.555 327.12 186.571C328.115 186.586 329.095 186.843 329.997 187.325C330.899 187.807 331.703 188.503 332.355 189.367C333.007 190.231 333.493 191.244 333.781 192.339C333.871 192.686 333.939 193.04 333.986 193.398L362.178 209.482L368.702 204.508L376.819 215.259L366.858 224.568C365.66 225.678 364.182 226.315 362.645 226.383C361.108 226.451 359.592 225.948 358.323 224.946L329.721 202.19C329.508 202.293 329.29 202.385 329.069 202.463C328.117 202.794 327.115 202.89 326.129 202.745C325.142 202.599 324.193 202.216 323.345 201.619C322.496 201.023 321.766 200.226 321.204 199.283C320.641 198.339 320.258 197.269 320.08 196.143C320.027 195.817 319.992 195.486 319.976 195.155C319.896 193.493 320.261 191.843 321.021 190.427C321.781 189.011 322.9 187.897 324.227 187.235Z" fill="#FFB8B8"/>
<path d="M382.944 286.261H352.14C352.14 287.279 320.393 288.106 320.393 288.106C319.895 288.538 319.441 289.033 319.039 289.583C317.833 291.237 317.174 293.329 317.178 295.488V296.964C317.179 299.411 318.024 301.758 319.528 303.488C321.032 305.218 323.072 306.191 325.199 306.192H382.944C385.071 306.19 387.11 305.217 388.613 303.487C390.117 301.757 390.963 299.411 390.964 296.964V295.488C390.962 293.042 390.116 290.697 388.612 288.967C387.109 287.237 385.07 286.264 382.944 286.261Z" fill="#3F3D56"/>
<path d="M349.437 367.832H357.778V305.825H349.437V367.832Z" fill="#3F3D56"/>
<path d="M325.697 367.495C325.697 368.532 338.336 367.896 353.928 367.896C369.52 367.896 382.159 368.532 382.159 367.495C382.159 366.458 369.52 358.236 353.928 358.236C338.336 358.236 325.697 366.458 325.697 367.495Z" fill="#3F3D56"/>
<path d="M333.226 360.228L325.361 360.227L321.618 336.755L333.228 336.756L333.226 360.228Z" fill="#FFB8B8"/>
<path d="M335.233 369L309.869 368.999V368.63C309.869 367.138 310.124 365.661 310.621 364.283C311.117 362.905 311.844 361.653 312.761 360.599C313.677 359.544 314.766 358.707 315.963 358.136C317.161 357.566 318.445 357.272 319.741 357.272H319.742L335.233 357.273L335.233 369Z" fill="#2F2E41"/>
<path d="M321.461 345.672L305.78 305.214C304.47 301.804 304.326 297.952 305.374 294.425C306.423 290.897 308.588 287.954 311.438 286.181L345.452 265.196L360.974 263.677L375.291 262.18L375.395 262.381C375.527 262.638 378.605 268.755 376.524 275.463C374.946 280.551 370.84 284.525 364.321 287.275C349.106 293.694 331.529 299.18 324.678 301.24C324.375 301.329 324.092 301.491 323.848 301.715C323.603 301.939 323.403 302.22 323.259 302.539C323.116 302.855 323.03 303.201 323.008 303.557C322.987 303.912 323.029 304.269 323.133 304.605L337.702 342.263C337.854 342.741 337.909 343.252 337.862 343.758C337.816 344.264 337.668 344.751 337.432 345.181C337.196 345.611 336.877 345.972 336.5 346.238C336.123 346.504 335.698 346.667 335.258 346.714L324.372 347.626C324.28 347.636 324.188 347.641 324.096 347.641C323.539 347.641 322.993 347.455 322.526 347.105C322.058 346.756 321.688 346.258 321.461 345.672Z" fill="#2F2E41"/>
<path d="M337.076 360.228L329.211 360.227L325.468 336.755L337.077 336.756L337.076 360.228Z" fill="#FFB8B8"/>
<path d="M339.082 369L313.719 368.999V368.63C313.719 367.138 313.974 365.661 314.47 364.283C314.966 362.905 315.694 361.653 316.61 360.599C317.527 359.544 318.615 358.707 319.813 358.136C321.011 357.566 322.295 357.272 323.591 357.272H323.592L339.083 357.273L339.082 369Z" fill="#2F2E41"/>
<path d="M325.953 347.887L310.271 307.429C308.962 304.019 308.817 300.167 309.866 296.639C310.914 293.112 313.079 290.169 315.929 288.395L349.944 267.41L365.465 265.892L379.783 264.394L379.886 264.595C380.018 264.852 383.096 270.969 381.015 277.677C379.437 282.765 375.331 286.739 368.813 289.49C353.597 295.908 336.02 301.394 329.169 303.455C328.867 303.544 328.584 303.705 328.339 303.929C328.095 304.153 327.894 304.434 327.751 304.754C327.607 305.069 327.521 305.416 327.5 305.771C327.478 306.127 327.521 306.484 327.625 306.82L342.194 344.478C342.346 344.955 342.401 345.467 342.354 345.973C342.307 346.478 342.16 346.965 341.924 347.395C341.688 347.825 341.369 348.187 340.992 348.453C340.615 348.719 340.19 348.881 339.75 348.928L328.863 349.84C328.771 349.85 328.679 349.855 328.587 349.855C328.03 349.855 327.484 349.669 327.017 349.32C326.549 348.97 326.18 348.473 325.953 347.887Z" fill="#2F2E41"/>
<path d="M318.137 224.292C311.547 214.208 306.338 203.022 302.689 191.125C302.478 190.413 302.493 189.638 302.732 188.938C302.971 188.238 303.417 187.658 303.993 187.301L326.543 173.4C326.908 173.173 327.313 173.046 327.727 173.026C328.141 173.007 328.554 173.097 328.933 173.288C329.32 173.482 329.663 173.774 329.937 174.143C330.21 174.512 330.407 174.948 330.512 175.417C333.137 186.883 338.071 197.476 344.914 206.34C345.196 206.701 345.402 207.131 345.518 207.598C345.633 208.064 345.654 208.555 345.58 209.032C345.509 209.502 345.345 209.947 345.102 210.333C344.858 210.719 344.541 211.036 344.175 211.26L321.626 225.161C321.049 225.515 320.381 225.622 319.743 225.463C319.104 225.304 318.535 224.889 318.137 224.292Z" fill="#CCCCCC"/>
<path d="M319.675 222.962C319.797 223.136 319.967 223.256 320.157 223.301C320.347 223.347 320.545 223.314 320.716 223.209L343.266 209.308C343.376 209.242 343.471 209.148 343.543 209.033C343.616 208.919 343.664 208.786 343.685 208.646C343.708 208.498 343.702 208.346 343.666 208.201C343.629 208.057 343.565 207.924 343.476 207.813C336.431 198.687 331.352 187.782 328.651 175.979C328.619 175.833 328.559 175.698 328.475 175.583C328.39 175.468 328.284 175.378 328.164 175.318C328.051 175.26 327.928 175.233 327.805 175.239C327.681 175.245 327.56 175.284 327.452 175.352L304.902 189.253C304.731 189.359 304.598 189.531 304.526 189.738C304.453 189.945 304.446 190.175 304.505 190.388C308.088 202.073 313.204 213.058 319.675 222.962Z" fill="white"/>
<path d="M393.051 220.584L375.39 228.305L371.079 214.526C370.506 212.696 370.514 210.692 371.101 208.869C371.689 207.045 372.817 205.519 374.288 204.561C375.776 203.591 377.516 203.265 379.194 203.642C380.872 204.019 382.378 205.074 383.439 206.616L393.051 220.584Z" fill="#6610F2"/>
<path d="M348.131 275.18C347.759 274.878 347.448 274.488 347.218 274.036C346.987 273.584 346.843 273.081 346.794 272.56C344.532 248.267 346.108 229.256 351.61 214.44C352.579 211.884 354.039 209.615 355.88 207.802C357.721 205.989 359.896 204.68 362.24 203.973L376.516 203.144L376.589 203.185C379.811 205 382.438 207.961 384.081 211.63C385.725 215.298 386.297 219.478 385.713 223.55C381.121 237.474 377.277 251.972 380.209 263.667C380.332 264.156 380.367 264.669 380.314 265.174C380.261 265.679 380.119 266.167 379.898 266.608C379.684 267.034 379.396 267.405 379.052 267.698C378.708 267.991 378.316 268.2 377.899 268.312L350.708 275.754C350.268 275.874 349.81 275.886 349.366 275.787C348.922 275.688 348.501 275.481 348.131 275.18Z" fill="#6610F2"/>
<path d="M371.751 197.009C380.455 197.009 387.51 188.892 387.51 178.879C387.51 168.865 380.455 160.748 371.751 160.748C363.048 160.748 355.992 168.865 355.992 178.879C355.992 188.892 363.048 197.009 371.751 197.009Z" fill="#FFB8B8"/>
<path d="M328.023 193.239L315.742 199.476C315.275 199.712 314.745 199.726 314.269 199.514C313.793 199.302 313.41 198.881 313.203 198.344L312.9 197.552C312.694 197.015 312.682 196.406 312.867 195.858C313.051 195.311 313.417 194.87 313.883 194.632L326.165 188.395C326.632 188.158 327.161 188.145 327.637 188.357C328.113 188.569 328.496 188.99 328.703 189.527L329.007 190.318C329.212 190.856 329.224 191.465 329.04 192.012C328.855 192.56 328.49 193.001 328.023 193.239Z" fill="#CCCCCC"/>
<path d="M332.515 202.835L320.233 209.072C319.766 209.309 319.236 209.322 318.76 209.11C318.285 208.898 317.901 208.477 317.695 207.941L317.391 207.149C317.185 206.611 317.173 206.002 317.358 205.455C317.542 204.907 317.908 204.466 318.375 204.229L330.656 197.991C331.123 197.755 331.653 197.741 332.129 197.953C332.604 198.165 332.988 198.586 333.194 199.123L333.498 199.915C333.704 200.452 333.716 201.061 333.531 201.609C333.347 202.156 332.981 202.597 332.515 202.835Z" fill="#CCCCCC"/>
<path d="M341.986 240.318L314.605 215.466C314.387 215.554 314.165 215.63 313.941 215.692C312.974 215.952 311.971 215.975 310.996 215.76C310.021 215.545 309.097 215.096 308.283 214.443C307.463 213.79 306.774 212.942 306.263 211.958C305.751 210.973 305.427 209.874 305.314 208.734C305.131 206.912 305.488 205.072 306.327 203.513C307.167 201.953 308.44 200.766 309.94 200.143C310.876 199.757 311.872 199.603 312.864 199.69C313.856 199.778 314.82 200.105 315.694 200.652C316.568 201.198 317.331 201.95 317.935 202.86C318.539 203.769 318.968 204.815 319.196 205.929C319.267 206.282 319.316 206.64 319.343 207.001L346.6 225.092L353.383 220.599L360.897 231.916L350.365 240.553C349.132 241.555 347.651 242.074 346.142 242.032C344.632 241.989 343.175 241.388 341.986 240.318Z" fill="#FFB8B8"/>
<path d="M364.238 235.441L348.615 223.219L355.957 211.255C356.932 209.667 358.364 208.526 359.999 208.034C361.634 207.542 363.368 207.731 364.894 208.568C366.438 209.415 367.667 210.868 368.361 212.666C369.054 214.464 369.166 216.488 368.676 218.373L364.238 235.441Z" fill="#6610F2"/>
<path d="M365.974 176.178C361.923 179.368 356.605 182.646 352.468 179.25C349.752 177.02 348.896 172.89 349.998 169.266C351.978 162.749 357.421 159.88 362.625 157.68C369.391 154.821 376.757 152.547 383.741 154.594C390.726 156.642 396.898 164.422 395.637 172.586C394.623 179.152 389.24 184.615 390.005 191.225C390.774 197.877 397.277 201.379 403.018 202.568C408.759 203.757 415.183 204.139 419.309 208.883C424.572 214.936 423.258 225.753 418.305 232.143C413.353 238.533 405.879 241.43 398.637 243.399C389.042 246.008 378.664 247.379 369.551 243.049C360.438 238.719 353.347 227.064 355.987 216.135C357.102 211.519 359.728 207.617 362.267 203.819C364.806 200.021 367.376 196.049 368.345 191.389C369.152 187.505 368.554 182.996 366.316 180.083C365.909 179.574 365.653 178.928 365.584 178.241C365.516 177.553 365.638 176.858 365.935 176.255L365.974 176.178Z" fill="#2F2E41"/>
<path d="M69.9828 264.268C65.922 265.91 61.5621 266.322 57.3231 265.462C53.0841 264.603 49.1088 262.503 45.7802 259.363C37.3031 251.177 34.6453 237.691 32.4828 225.204C30.3506 212.892 28.2185 200.58 26.0863 188.268L39.4779 198.877C49.1084 206.506 58.9558 214.38 65.6239 225.43C72.292 236.481 75.2027 251.566 69.845 263.523" fill="#E6E6E6"/>
<path d="M68.8381 308.986C70.1935 297.627 71.5872 286.123 70.6364 274.642C69.7921 264.446 67.0884 254.488 61.584 246.322C58.6622 241.996 55.107 238.29 51.0782 235.37C50.0276 234.607 49.0607 236.522 50.1067 237.282C57.0777 242.351 62.4695 249.835 65.5048 258.657C68.8572 268.467 69.3955 279.161 68.8178 289.582C68.4685 295.884 67.7281 302.145 66.9819 308.397C66.9231 308.68 66.9598 308.978 67.0846 309.231C67.2094 309.484 67.4129 309.673 67.6541 309.759C67.9002 309.836 68.1625 309.797 68.3842 309.652C68.6058 309.508 68.7689 309.268 68.8381 308.986Z" fill="#F2F2F2"/>
<path d="M55.7829 288.886C54.0413 291.932 51.6474 294.41 48.8318 296.082C46.0162 297.754 42.8738 298.563 39.7073 298.432C31.5696 297.988 24.7853 291.453 18.6782 285.25L0.614502 266.9L12.5697 266.242C21.1671 265.769 29.9863 265.327 38.1751 268.378C46.3639 271.428 53.916 278.769 55.4133 288.521" fill="#E6E6E6"/>
<path d="M72.6685 315.516C66.1447 302.235 58.5777 287.475 45.0566 282.757C41.2971 281.45 37.355 280.982 33.4426 281.378C32.2096 281.5 32.5175 283.687 33.7483 283.565C40.3063 282.938 46.8517 284.93 52.2824 289.206C57.5083 293.299 61.5773 298.988 65.0212 305.022C67.1307 308.718 69.0203 312.57 70.9102 316.418C71.5142 317.647 73.2795 316.76 72.6685 315.516Z" fill="#F2F2F2"/>
<path d="M83.1215 329.495C82.9017 326.564 81.9872 323.76 80.4777 321.386C78.9682 319.012 76.9215 317.16 74.5605 316.032V308.355H63.3676V316.274C61.1228 317.458 59.1909 319.305 57.7689 321.627C56.3469 323.95 55.4856 326.664 55.2728 329.495L52.6409 364.694H85.7535L83.1215 329.495Z" fill="#F2F2F2"/>
</g>
<defs>
<clipPath id="clip0_5_22">
<rect width="444" height="369" fill="white"/>
</clipPath>
</defs>
</svg>
